<svg width="1010" height="457" viewBox="0 0 1010 457" fill="none" xmlns="http://www.w3.org/2000/svg">
<rect width="1010" height="457" rx="24" fill="#142950"/>
<path d="M45 403V54H186.396C292.042 54 347 102.487 347 228.234C347 354.513 292.042 403 186.396 403H45ZM132.505 328.937H176.792C229.615 328.937 259.495 302.296 259.495 228.234C259.495 154.171 229.615 128.063 176.792 128.063H132.505V328.937Z" fill="white"/>
<circle cx="379" cy="371" r="32" fill="white"/>
<path d="M530.457 403C477.222 403 447 373.799 447 310.391C447 245.035 477.222 215 530.457 215C583.415 215 614.192 245.035 614.192 310.391C614.192 373.799 583.415 403 530.457 403ZM492.472 310.391C492.472 349.325 505.226 367.402 530.457 367.402C555.689 367.402 568.998 349.325 568.998 310.391C568.998 269.787 555.689 251.154 530.457 251.154C505.226 251.154 492.472 269.787 492.472 310.391Z" fill="#4FADE1"/>
<path d="M755.492 399.663L683.957 290.089V399.663H643.476V217.503H684.235L755.769 327.355V217.503H796.25V399.663H755.492Z" fill="#4FADE1"/>
<path d="M832.744 399.663V217.503H965V256.16H878.215V290.923H953.632V327.355H878.215V361.006H965V399.663H832.744Z" fill="#4FADE1"/>
</svg>
